<svg width="19" height="20" viewBox="0 0 19 20" fill="none" xmlns="http://www.w3.org/2000/svg">
<g clip-path="url(#clip0_103_963)">
<path fill-rule="evenodd" clip-rule="evenodd" d="M1.47283 12.3859C1.42046 11.6898 1.50293 10.99 1.71569 10.3252C1.95857 9.54669 2.3738 8.83306 2.93046 8.23748C3.48711 7.64189 4.17085 7.17969 4.93075 6.88528C5.56983 6.63531 6.25072 6.50976 6.93685 6.5154C7.20662 6.91748 7.56866 7.24906 7.9927 7.48238C7.47764 7.81959 7.01814 8.23494 6.63066 8.71355C5.94748 9.55954 5.51737 10.5817 5.39004 11.662C4.89915 12.2228 4.2295 12.5962 3.49479 12.7188C2.80433 12.84 2.0932 12.7285 1.47283 12.4018V12.3859ZM7.80792 2.26706C7.71008 2.14889 7.60235 2.03928 7.4859 1.93944C7.22023 1.70062 6.90722 1.52056 6.56731 1.41104C6.39339 1.34432 6.25132 1.21392 6.1699 1.04624C6.08849 0.87857 6.07383 0.686179 6.12889 0.508086C6.18395 0.329992 6.30461 0.179525 6.46641 0.0871771C6.62821 -0.00517078 6.81903 -0.032489 7.0002 0.0107743C7.52713 0.174746 8.01432 0.446448 8.43089 0.808666C8.7491 1.07851 9.02183 1.39788 9.23861 1.75451C9.41433 1.74096 9.59082 1.74096 9.76653 1.75451C9.98309 1.39927 10.2538 1.08013 10.569 0.808666C10.9882 0.447439 11.4769 0.175901 12.0049 0.0107743C12.1861 -0.032489 12.3769 -0.00517078 12.5387 0.0871771C12.7005 0.179525 12.8212 0.329992 12.8762 0.508086C12.9313 0.686179 12.9166 0.87857 12.8352 1.04624C12.7538 1.21392 12.6118 1.34432 12.4378 1.41104C12.0979 1.52056 11.7849 1.70062 11.5192 1.93944C11.4028 2.03928 11.2951 2.14889 11.1972 2.26706C11.6185 2.54491 11.9645 2.92299 12.204 3.36747C12.4436 3.81194 12.5692 4.30893 12.5698 4.81394C12.5751 4.89841 12.5751 4.98312 12.5698 5.06758C14.3118 5.18662 15.9438 5.96275 17.1364 7.2393C17.8419 7.9933 18.3702 8.89561 18.6826 9.88023C18.995 10.8649 19.0836 11.9069 18.9419 12.9302L18.8943 13.2631L18.6198 13.4428C17.8771 13.9232 17.0152 14.1867 16.131 14.2035C15.2468 14.2203 14.3755 13.9897 13.6151 13.5379C13.5354 14.083 13.3864 14.6157 13.1716 15.1231C12.7291 16.1431 12.0264 17.0287 11.1339 17.6911C10.9247 17.8364 10.7079 17.9705 10.4845 18.0927L10.1942 18.6634L9.49729 20.0002L8.81099 18.6528L8.52063 18.0821C8.29719 17.9599 8.08044 17.8259 7.87129 17.6805C6.97879 17.0182 6.27601 16.1326 5.83349 15.1125C5.61876 14.6052 5.46974 14.0725 5.39004 13.5273C4.87865 13.8323 4.31454 14.0385 3.72708 14.135C2.56446 14.3317 1.37053 14.0806 0.385309 13.4322L0.110794 13.2525L0.0632829 12.9196C-0.14777 11.378 0.16546 9.81016 0.952592 8.46833C1.73972 7.1265 2.95499 6.08873 4.40282 5.522C5.05378 5.26956 5.73892 5.11638 6.43533 5.06758C6.43006 4.98312 6.43006 4.89841 6.43533 4.81394C6.43591 4.30893 6.56159 3.81194 6.80113 3.36747C7.04068 2.92299 7.38659 2.54491 7.80792 2.26706ZM17.5323 12.3859C17.5847 11.6898 17.5022 10.99 17.2895 10.3252C17.0466 9.54669 16.6313 8.83306 16.0747 8.23748C15.518 7.64189 14.8343 7.17969 14.0744 6.88528C13.4336 6.63477 12.7509 6.50922 12.063 6.5154C11.7951 6.91913 11.4327 7.25112 11.0071 7.48238C11.5222 7.81959 11.9817 8.23494 12.3692 8.71355C13.0524 9.55954 13.4825 10.5817 13.6098 11.662C14.1007 12.2228 14.7704 12.5962 15.5051 12.7188C16.1955 12.84 16.9066 12.7285 17.527 12.4018L17.5323 12.3859ZM11.118 4.81394C11.1186 4.52086 11.038 4.23336 10.8852 3.98337C10.7323 3.73338 10.5132 3.53069 10.2522 3.39783C10.0555 3.29696 9.83951 3.23931 9.61872 3.22874H9.39698C9.17619 3.23931 8.9602 3.29696 8.76347 3.39783C8.5672 3.49679 8.39367 3.63556 8.25389 3.80529C8.11412 3.97502 8.01117 4.17201 7.95159 4.38373C7.892 4.59545 7.87709 4.81726 7.9078 5.03506C7.93851 5.25286 8.01417 5.46188 8.12997 5.64883C8.2851 5.89738 8.50382 6.09987 8.76347 6.23535C8.9602 6.33622 9.17619 6.39387 9.39698 6.40444H9.61872C9.83951 6.39387 10.0555 6.33622 10.2522 6.23535C10.5119 6.09987 10.7306 5.89738 10.8857 5.64883C11.0376 5.39688 11.1179 5.10821 11.118 4.81394ZM9.50784 16.9672L9.63982 16.8985C9.85423 16.787 10.0622 16.6635 10.2628 16.5286C10.9217 16.039 11.4457 15.3899 11.7855 14.6422C12.1253 13.8945 12.2698 13.0727 12.2055 12.2538V12.0372C12.1355 11.1653 11.8043 10.3347 11.2553 9.65411C10.7985 9.08588 10.2043 8.6439 9.52896 8.37009C8.85363 8.6439 8.2594 9.08588 7.80266 9.65411C7.25364 10.3347 6.92246 11.1653 6.85238 12.0372V12.2538C6.78811 13.0727 6.93266 13.8945 7.27246 14.6422C7.61226 15.3899 8.13621 16.039 8.79516 16.5286C8.99572 16.6635 9.20369 16.787 9.4181 16.8985L9.55008 16.9672H9.50784Z" fill="#FDC838"/>
</g>
<defs>
<clipPath id="clip0_103_963">
<rect width="19" height="20" fill="white"/>
</clipPath>
</defs>
</svg>
